<svg width="45" height="40" viewBox="0 0 45 40" fill="none" xmlns="http://www.w3.org/2000/svg">
<path d="M30.4935 0C27.6659 0 25.2265 1.74782 23.7295 4.39451C26.2244 7.09114 27.7214 10.7865 27.7214 15.0312C27.7214 16.4794 27.5551 17.7778 27.2224 19.0762C28.2758 19.6255 29.3292 20.025 30.4935 20.025C35.0953 20.025 38.8099 15.5306 38.8099 10.0375C38.8099 4.54432 35.0953 0.0499376 30.4935 0.0499376V0ZM13.8607 4.99376C9.25894 4.99376 5.54428 9.48814 5.54428 14.9813C5.54428 20.4744 9.25894 24.9688 13.8607 24.9688C18.4624 24.9688 22.1771 20.4744 22.1771 14.9813C22.1771 9.48814 18.4624 4.99376 13.8607 4.99376ZM40.196 20.774C37.812 23.3208 34.5409 24.8689 30.8262 24.9688C32.3231 26.8664 33.2657 29.1635 33.2657 31.6604V34.9563H44.3542V26.6667C44.3542 24.0699 42.6355 21.8227 40.196 20.7241V20.774ZM4.15821 25.7678C1.71873 26.8664 0 29.1136 0 31.7104V40H27.7214V31.7104C27.7214 29.1136 26.0027 26.8664 23.5632 25.7678C21.0683 28.4145 17.6862 29.9625 13.8607 29.9625C10.0351 29.9625 6.65313 28.3645 4.15821 25.7678Z" fill="#111827"/>
</svg>
